<svg width="28" height="28" viewBox="0 0 28 28" fill="none" xmlns="http://www.w3.org/2000/svg">
<path fill-rule="evenodd" clip-rule="evenodd" d="M21 11.6667C21 11.0238 20.4773 10.5 19.8333 10.5C19.1893 10.5 18.6666 11.0238 18.6666 11.6667C18.6666 12.3095 19.1893 12.8333 19.8333 12.8333C20.4773 12.8333 21 12.3095 21 11.6667ZM23.3333 11.6667C23.3333 13.5963 21.763 15.1667 19.8333 15.1667C17.9036 15.1667 16.3333 13.5963 16.3333 11.6667C16.3333 9.737 17.9036 8.16667 19.8333 8.16667C21.763 8.16667 23.3333 9.737 23.3333 11.6667ZM12.8333 8.16667C12.8333 6.87983 11.7868 5.83333 10.5 5.83333C9.21315 5.83333 8.16665 6.87983 8.16665 8.16667C8.16665 9.4535 9.21315 10.5 10.5 10.5C11.7868 10.5 12.8333 9.4535 12.8333 8.16667ZM15.1666 8.16667C15.1666 10.7403 13.0736 12.8333 10.5 12.8333C7.92631 12.8333 5.83331 10.7403 5.83331 8.16667C5.83331 5.593 7.92631 3.5 10.5 3.5C13.0736 3.5 15.1666 5.593 15.1666 8.16667ZM16.2633 17.5537C17.2771 16.7697 18.5255 16.3333 19.8333 16.3333C23.0498 16.3333 25.6666 18.9502 25.6666 22.1667C25.6666 22.8107 25.1451 23.3333 24.5 23.3333C23.8548 23.3333 23.3333 22.8107 23.3333 22.1667C23.3333 20.237 21.763 18.6667 19.8333 18.6667C19.0365 18.6667 18.2793 18.9397 17.668 19.4238C18.3026 20.5858 18.6666 21.9182 18.6666 23.3333C18.6666 23.9773 18.1451 24.5 17.5 24.5C16.8548 24.5 16.3333 23.9773 16.3333 23.3333C16.3333 20.1168 13.7165 17.5 10.5 17.5C7.28348 17.5 4.66665 20.1168 4.66665 23.3333C4.66665 23.9773 4.14515 24.5 3.49998 24.5C2.85481 24.5 2.33331 23.9773 2.33331 23.3333C2.33331 18.83 5.99781 15.1667 10.5 15.1667C12.7481 15.1667 14.7851 16.0802 16.2633 17.5537Z" fill="#888888"/>
</svg>
