<svg width="28" height="28" viewBox="0 0 28 28" fill="none" xmlns="http://www.w3.org/2000/svg">
<path fill-rule="evenodd" clip-rule="evenodd" d="M14 16.3335H10.5C9.85598 16.3335 9.33331 15.8108 9.33331 15.1668C9.33331 14.5228 9.85598 14.0002 10.5 14.0002H14C14.644 14.0002 15.1666 14.5228 15.1666 15.1668C15.1666 15.8108 14.644 16.3335 14 16.3335ZM10.5 18.6668H17.5C18.1451 18.6668 18.6666 19.1895 18.6666 19.8335C18.6666 20.4775 18.1451 21.0002 17.5 21.0002H10.5C9.85598 21.0002 9.33331 20.4775 9.33331 19.8335C9.33331 19.1895 9.85598 18.6668 10.5 18.6668ZM20.3517 23.3335H7.64783C7.29083 23.3335 7.00033 23.0722 7.00033 22.7502V5.25016C7.00033 4.92816 7.29083 4.66683 7.64783 4.66683H14.0003V8.34183C14.0003 10.1758 15.4202 11.6668 17.1667 11.6668H21.0003V22.7502C21.0003 23.0722 20.7098 23.3335 20.3517 23.3335ZM16.3337 5.80783L19.5327 9.3335H17.1667C16.707 9.3335 16.3337 8.889 16.3337 8.34183V5.80783ZM23.0303 9.71616L16.679 2.71616C16.4573 2.47233 16.1447 2.3335 15.8145 2.3335H7.64783C6.00399 2.3335 4.66699 3.6425 4.66699 5.25016V22.7502C4.66699 24.3578 6.00399 25.6668 7.64783 25.6668H20.3517C21.9955 25.6668 23.3337 24.3578 23.3337 22.7502V10.5002C23.3337 10.2097 23.2252 9.93083 23.0303 9.71616Z" fill="#888888"/>
</svg>
