<svg width="28" height="28" viewBox="0 0 28 28" fill="none" xmlns="http://www.w3.org/2000/svg">
<path fill-rule="evenodd" clip-rule="evenodd" d="M23.3333 21C23.3333 21.6428 22.8095 22.1667 22.1666 22.1667H19.8333V10.5H22.1666C22.8095 10.5 23.3333 11.0238 23.3333 11.6667V21ZM4.66665 21V11.6667C4.66665 11.0238 5.19048 10.5 5.83331 10.5H8.16665V22.1667H5.83331C5.19048 22.1667 4.66665 21.6428 4.66665 21ZM11.6666 6.41667C11.6666 6.09467 11.928 5.83333 12.25 5.83333H15.75C16.072 5.83333 16.3333 6.09467 16.3333 6.41667V8.16667H11.6666V6.41667ZM10.5 22.1667H17.5V10.5H10.5V22.1667ZM22.1666 8.16667H18.6666V6.41667C18.6666 4.809 17.3576 3.5 15.75 3.5H12.25C10.6423 3.5 9.33331 4.809 9.33331 6.41667V8.16667H5.83331C3.90365 8.16667 2.33331 9.737 2.33331 11.6667V21C2.33331 22.9297 3.90365 24.5 5.83331 24.5H22.1666C24.0963 24.5 25.6666 22.9297 25.6666 21V11.6667C25.6666 9.737 24.0963 8.16667 22.1666 8.16667Z" fill="#888888"/>
</svg>
